<?xml version="1.0" encoding="utf-8"?>
<!-- Generator: Adobe Illustrator 22.0.1, SVG Export Plug-In . SVG Version: 6.00 Build 0)  -->
<svg version="1.1" id="Layer_1" xmlns="http://www.w3.org/2000/svg" xmlns:xlink="http://www.w3.org/1999/xlink" x="0px" y="0px"
	 viewBox="0 0 32 32" style="enable-background:new 0 0 32 32;" xml:space="preserve">
<style type="text/css">
	.st0{fill:#1AEECA;}
</style>
<title>Row</title>
<desc>Created with Sketch.</desc>
<g id="Page-1">
	<g id="Row">
		<path id="Rectangle" d="M5,0h22c2.8,0,5,2.2,5,5v22c0,2.8-2.2,5-5,5H5c-2.8,0-5-2.2-5-5V5C0,2.2,2.2,0,5,0z"/>
	</g>
</g>
<path class="st0" d="M16,6.1c5.4,0,9.9,4.4,9.9,9.9c0,5.4-4.4,9.9-9.9,9.9S6.1,21.4,6.1,16C6.1,10.6,10.6,6.1,16,6.1 M16,3.8
	C9.3,3.8,3.8,9.3,3.8,16S9.3,28.2,16,28.2S28.2,22.7,28.2,16S22.7,3.8,16,3.8L16,3.8z"/>
</svg>
